<?xml version="1.0" encoding="UTF-8" standalone="no"?>
<svg
   xmlns:dc="http://purl.org/dc/elements/1.1/"
   xmlns:cc="http://creativecommons.org/ns#"
   xmlns:rdf="http://www.w3.org/1999/02/22-rdf-syntax-ns#"
   xmlns:svg="http://www.w3.org/2000/svg"
   xmlns="http://www.w3.org/2000/svg"
   xmlns:sodipodi="http://sodipodi.sourceforge.net/DTD/sodipodi-0.dtd"
   xmlns:inkscape="http://www.inkscape.org/namespaces/inkscape"
   width="210mm"
   height="297mm"
   viewBox="0 0 210 297"
   version="1.1"
   id="svg3104"
   inkscape:version="1.0.1 (3bc2e813f5, 2020-09-07)"
   sodipodi:docname="piano.svg">
  <defs
     id="defs3098" />
  <sodipodi:namedview
     id="base"
     pagecolor="#ffffff"
     bordercolor="#666666"
     borderopacity="1.0"
     inkscape:pageopacity="0.0"
     inkscape:pageshadow="2"
     inkscape:zoom="5.6"
     inkscape:cx="90.032626"
     inkscape:cy="107.51443"
     inkscape:document-units="px"
     inkscape:current-layer="layer1"
     inkscape:document-rotation="0"
     showgrid="false"
     inkscape:window-width="1718"
     inkscape:window-height="1368"
     inkscape:window-x="1713"
     inkscape:window-y="0"
     inkscape:window-maximized="0" />
  <metadata
     id="metadata3101">
    <rdf:RDF>
      <cc:Work
         rdf:about="">
        <dc:format>image/svg+xml</dc:format>
        <dc:type
           rdf:resource="http://purl.org/dc/dcmitype/StillImage" />
        <dc:title></dc:title>
      </cc:Work>
    </rdf:RDF>
  </metadata>
  <g
     inkscape:label="Layer 1"
     inkscape:groupmode="layer"
     id="layer1">
    <g
       id="g3025"
       transform="matrix(0.1087057,0,0,0.1087057,-88.051943,-10.423408)"
       style="fill:#333333;fill-opacity:1">
      <path
         style="fill:#333333;fill-opacity:1;stroke-width:1.43305"
         d="m 885.53443,463.38695 c 0,-1.91891 -2.44808,-2.2537 -16.48005,-2.2537 h -16.48005 v -5.64761 c 0,-3.10619 0.64487,-6.04617 1.43304,-6.5333 2.05285,-1.26872 1.97097,-202.7763 -0.0824,-202.7763 -0.89663,0 -1.3355,-2.48695 -1.07478,-6.09046 l 0.44066,-6.09045 16.12179,-0.4052 c 9.14929,-0.22995 16.12179,-1.00467 16.12179,-1.79131 0,-1.95223 181.24537,-1.83007 193.46147,0.13041 26.7888,4.29914 50.9518,26.67957 57.9938,53.71539 6.8707,26.37837 -1.923,54.03176 -24.1335,75.892 -15.6397,15.3931 -33.1532,23.64529 -50.182,23.64529 -14.1186,0 -34.5396,17.86858 -48.1654,42.1453 -10.8633,19.35463 -19.19062,29.42852 -27.9452,33.80625 -7.13827,3.56949 -7.33652,3.58431 -54.09685,4.04501 -41.92197,0.41301 -46.93232,0.22179 -46.93232,-1.79131 z m -5.73219,-22.31637 c 0,-0.78818 -2.82131,-1.43305 -6.26959,-1.43305 -3.44827,0 -8.2848,-0.40304 -10.74786,-0.89565 -3.54587,-0.70918 -4.47827,-0.41082 -4.47827,1.43304 0,1.94259 1.78212,2.32871 10.74786,2.32871 6.20987,0 10.74786,-0.60506 10.74786,-1.43305 z m -9.92561,-7.40698 c -10.32124,-1.12881 -13.90102,-0.65791 -10.60053,1.39444 0.88171,0.54828 6.02201,0.72071 11.42288,0.38318 l 9.81978,-0.6137 z m 4.55168,-5.47468 c 2.95566,-0.009 5.37393,-0.66065 5.37393,-1.44882 0,-0.82799 -4.53799,-1.43305 -10.74786,-1.43305 -8.98153,0 -10.74786,0.38409 -10.74786,2.33707 0,1.90318 0.99774,2.17216 5.37393,1.44883 2.95566,-0.48854 7.7922,-0.89536 10.74786,-0.90403 z m 4.7338,-5.87158 c 0.4451,-0.72018 -1.64705,-1.31653 -4.64923,-1.32521 -3.00217,-0.009 -7.87677,-0.41549 -10.83243,-0.90403 -4.22564,-0.69845 -5.37393,-0.42676 -5.37393,1.2715 0,1.71333 2.07181,2.17086 10.02316,2.21348 5.51273,0.0295 10.38733,-0.53555 10.83243,-1.25574 z m 0.52071,-7.95711 c 0.3284,-0.28467 -2.33169,-0.51756 -5.91132,-0.51756 -3.57964,0 -8.52365,-0.40305 -10.98671,-0.89566 -3.55216,-0.71043 -4.47827,-0.412 -4.47827,1.44305 0,2.03297 1.35826,2.21771 10.3896,1.41322 5.71428,-0.50902 10.65829,-1.15839 10.9867,-1.44305 z m -5.91132,-4.81671 c 9.30244,0 7.01507,-0.8836 -5.07538,-1.96061 -9.03134,-0.8045 -10.3896,-0.61975 -10.3896,1.41322 0,1.85505 0.92611,2.15348 4.47827,1.44305 2.46306,-0.49261 7.40707,-0.89566 10.98671,-0.89566 z m 0.65681,-7.14946 c 2.95566,-0.009 5.37393,-0.66065 5.37393,-1.44883 0,-0.82798 -4.53799,-1.43305 -10.74786,-1.43305 -8.98153,0 -10.74786,0.38409 -10.74786,2.33708 0,1.90317 0.99774,2.17215 5.37393,1.44882 2.95566,-0.48854 7.7922,-0.89535 10.74786,-0.90402 z m 5.37393,-5.74797 c 0,-0.78818 -2.41827,-1.44014 -5.37393,-1.44883 -2.95566,-0.009 -7.7922,-0.41548 -10.74786,-0.90402 -4.37619,-0.72333 -5.37393,-0.45435 -5.37393,1.44882 0,1.95299 1.76633,2.33708 10.74786,2.33708 6.20987,0 10.74786,-0.60507 10.74786,-1.43305 z m -0.11942,-8.08073 c 0.3284,-0.28466 -2.33169,-0.51756 -5.91132,-0.51756 -3.57964,0 -8.52365,-0.40304 -10.98671,-0.89566 -3.55216,-0.71043 -4.47827,-0.412 -4.47827,1.44306 0,2.03296 1.35826,2.21771 10.3896,1.41321 5.71428,-0.50902 10.65829,-1.15839 10.9867,-1.44305 z m -6.15017,-4.8167 c 3.44828,0 6.26959,-0.64488 6.26959,-1.43305 0,-0.82799 -4.53799,-1.43305 -10.74786,-1.43305 -8.96574,0 -10.74786,0.38612 -10.74786,2.3287 0,1.84386 0.9324,2.14222 4.47827,1.43305 2.46306,-0.49261 7.29959,-0.89565 10.74786,-0.89565 z m 6.26959,-7.27149 c 0,-0.94153 -2.76953,-1.39229 -7.1318,-1.16077 -3.92249,0.20819 -7.57676,-0.0665 -8.12061,-0.61028 -1.82954,-1.82954 -6.24331,-1.00894 -6.24331,1.16077 0,1.71966 2.14957,2.14957 10.74786,2.14957 6.70443,0 10.74786,-0.57909 10.74786,-1.53929 z m -6.03074,-5.62595 c 9.30244,0 7.01507,-0.8836 -5.07538,-1.96061 -9.03134,-0.8045 -10.3896,-0.61975 -10.3896,1.41322 0,1.85505 0.92611,2.15348 4.47827,1.44305 2.46306,-0.49261 7.40707,-0.89566 10.98671,-0.89566 z m 0.65681,-7.14946 c 2.95566,-0.009 5.37393,-0.68889 5.37393,-1.51161 0,-2.40811 -20.40096,-1.10387 -21.21515,1.35628 -0.52694,1.59219 0.49186,1.8189 4.90103,1.09057 3.06144,-0.50571 7.98453,-0.92657 10.94019,-0.93524 z m 5.37393,-5.74797 c 0,-0.78818 -2.41827,-1.44014 -5.37393,-1.44883 -2.95566,-0.009 -7.7922,-0.41548 -10.74786,-0.90402 -4.37619,-0.72333 -5.37393,-0.45435 -5.37393,1.44883 0,1.95298 1.76633,2.33707 10.74786,2.33707 6.20987,0 10.74786,-0.60506 10.74786,-1.43305 z m -13.61396,-7.16524 c 0.51672,-0.83607 -0.94048,-1.43305 -3.49804,-1.43305 -2.41105,0 -4.38372,0.64487 -4.38372,1.43305 0,0.78818 1.57412,1.43305 3.49804,1.43305 1.92393,0 3.8966,-0.64487 4.38372,-1.43305 z m 10.3896,-0.98784 c -1.37931,-0.36044 -3.63636,-0.36044 -5.01567,0 -1.37931,0.36045 -0.25078,0.65537 2.50784,0.65537 2.75861,0 3.88714,-0.29492 2.50783,-0.65537 z m -2.80638,-4.74435 c 9.30244,0 7.01507,-0.88361 -5.07538,-1.96061 -9.03134,-0.80451 -10.3896,-0.61975 -10.3896,1.41321 0,1.85505 0.92611,2.15349 4.47827,1.44305 2.46306,-0.49261 7.40707,-0.89565 10.98671,-0.89565 z m 5.91132,-8.08073 c 0.3284,-0.28466 -4.34691,-0.51756 -10.3896,-0.51756 -6.41989,0 -10.9867,0.59983 -10.9867,1.44305 0,1.31399 19.78066,0.45758 21.3763,-0.92549 z m 0.11942,-4.81671 c 0,-0.78817 -2.41827,-1.44014 -5.37393,-1.44882 -2.95566,-0.009 -7.7922,-0.41548 -10.74786,-0.90402 -4.37619,-0.72334 -5.37393,-0.45435 -5.37393,1.44882 0,1.95299 1.76633,2.33707 10.74786,2.33707 6.20987,0 10.74786,-0.60506 10.74786,-1.43305 z m -14.33048,-7.16524 c 0,-0.78817 -1.61218,-1.43304 -3.58262,-1.43304 -1.97044,0 -3.58262,0.64487 -3.58262,1.43304 0,0.78818 1.61218,1.43305 3.58262,1.43305 1.97044,0 3.58262,-0.64487 3.58262,-1.43305 z m 8.95655,-5.71642 c 2.95566,-0.009 5.37393,-0.66064 5.37393,-1.44882 0,-0.82798 -4.53799,-1.43304 -10.74786,-1.43304 -8.98153,0 -10.74786,0.38408 -10.74786,2.33707 0,1.90317 0.99774,2.17216 5.37393,1.44882 2.95566,-0.48854 7.7922,-0.89535 10.74786,-0.90403 z m 5.25451,-6.26552 c -1.59564,-1.38307 -21.3763,-2.23948 -21.3763,-0.92549 0,0.84322 4.56681,1.44305 10.9867,1.44305 6.04269,0 10.718,-0.2329 10.3896,-0.51756 z m -5.01567,-6.63191 c 8.45465,-0.0238 5.69502,-0.93718 -5.97103,-1.97638 -9.04513,-0.80573 -10.3896,-0.62177 -10.3896,1.42158 0,1.91473 0.98992,2.18346 5.37393,1.45883 2.95566,-0.48854 7.89968,-0.89535 10.9867,-0.90403 z m 5.01567,-8.0965 c 0.3284,-0.28466 -4.34691,-0.51756 -10.3896,-0.51756 -6.41989,0 -10.9867,0.59983 -10.9867,1.44305 0,1.31399 19.78066,0.45758 21.3763,-0.92549 z m 0.11942,-4.8167 c 0,-0.78818 -2.41827,-1.44015 -5.37393,-1.44882 -2.95566,-0.009 -7.7922,-0.41549 -10.74786,-0.90403 -4.37619,-0.72334 -5.37393,-0.45435 -5.37393,1.44882 0,1.95299 1.76633,2.33707 10.74786,2.33707 6.20987,0 10.74786,-0.60506 10.74786,-1.43304 z m -12.18091,-7.16524 c -3.99643,-1.71733 -9.31481,-1.71733 -9.31481,0 0,0.78817 2.7407,1.38772 6.09045,1.33232 4.71694,-0.078 5.4441,-0.37847 3.22436,-1.33232 z m 11.1334,0.49305 c -0.97022,-0.39254 -2.90484,-0.41644 -4.29915,-0.0531 -1.39431,0.36333 -0.60049,0.68451 1.76404,0.71371 2.36453,0.0292 3.50533,-0.26807 2.53511,-0.66062 z m 0.92809,-7.14074 c 0.3284,-0.28465 -2.33169,-0.51756 -5.91132,-0.51756 -3.57964,0 -8.52365,-0.40304 -10.98671,-0.89565 -3.55216,-0.71043 -4.47827,-0.41201 -4.47827,1.44305 0,2.03297 1.35826,2.21772 10.3896,1.41322 5.71428,-0.50903 10.65829,-1.1584 10.9867,-1.44306 z m -14.90239,-5.04173 c 0.77432,-0.44323 4.47099,-0.65585 8.21483,-0.47248 3.74384,0.18336 6.80698,-0.22956 6.80698,-0.9176 0,-0.68804 -4.83654,-1.25099 -10.74786,-1.25099 -7.99936,0 -10.74786,0.48846 -10.74786,1.91009 0,1.88239 3.72719,2.30324 6.47391,0.73098 z m 15.02181,-6.94021 c 0,-0.78818 -2.41827,-1.44015 -5.37393,-1.44882 -2.95566,-0.009 -7.7922,-0.41549 -10.74786,-0.90403 -4.37619,-0.72334 -5.37393,-0.45434 -5.37393,1.44882 0,1.953 1.76633,2.33708 10.74786,2.33708 6.20987,0 10.74786,-0.60507 10.74786,-1.43305 z m -6.03074,-5.73219 c 9.30244,0 7.01507,-0.88361 -5.07538,-1.96061 -9.03134,-0.80451 -10.3896,-0.61975 -10.3896,1.41321 0,1.85506 0.92611,2.15349 4.47827,1.44305 2.46306,-0.49261 7.40707,-0.89565 10.98671,-0.89565 z m 0.65681,-7.14947 c 2.95566,-0.009 5.37393,-0.66064 5.37393,-1.44882 0,-0.82798 -4.53799,-1.43305 -10.74786,-1.43305 -8.98153,0 -10.74786,0.38408 -10.74786,2.33708 0,1.90316 0.99774,2.17216 5.37393,1.44882 2.95566,-0.48854 7.7922,-0.89536 10.74786,-0.90403 z"
         id="path3039" />
      <path
         style="fill:#333333;fill-opacity:1;stroke-width:1.43305"
         d="m 885.73371,462.9764 c -0.64662,-1.15752 -6.23621,-1.87668 -16.70729,-2.14958 l -15.73557,-0.41009 -0.44477,-5.37393 c -0.25746,-3.11085 0.19515,-5.37393 1.07479,-5.37393 2.05719,0 2.14316,-202.93827 0.0865,-204.20936 -0.78817,-0.48712 -1.43304,-3.10466 -1.43304,-5.81676 v -4.9311 h 16.32673 c 13.04615,0 16.48924,-0.42348 17.13549,-2.10759 0.69932,-1.8224 12.80621,-2.116 89.47025,-2.16972 55.0549,-0.0386 92.9654,0.51669 100.0162,1.46492 27.2213,3.66089 50.6034,22.57773 59.4155,48.06909 9.5529,27.63429 1.5149,57.82976 -21.5281,80.87283 -14.3573,14.35721 -26.8463,20.70927 -46.3869,23.59285 -9.83,1.4506 -16.0579,3.21846 -20.4916,5.81679 -10.6015,6.21284 -21.2458,18.2091 -31.3762,35.36113 -13.0312,22.06369 -19.70302,30.6241 -26.83981,34.43766 -5.84308,3.12227 -7.69031,3.25781 -53.83059,3.94974 -36.59615,0.54881 -48.00732,0.30937 -48.75159,-1.02295 z m -5.93147,-21.90582 c 0,-0.78818 -2.41827,-1.44014 -5.37393,-1.44883 -2.95566,-0.009 -7.7922,-0.41548 -10.74786,-0.90402 -4.37619,-0.72333 -5.37393,-0.45435 -5.37393,1.44883 0,1.95298 1.76633,2.33707 10.74786,2.33707 6.20987,0 10.74786,-0.60506 10.74786,-1.43305 z m -5.37393,-5.71642 c 9.44656,-0.0278 5.74811,-2.45264 -3.99393,-2.61866 -5.15232,-0.0879 -9.98886,-0.54343 -10.74786,-1.01252 -0.759,-0.46908 -1.38,0.55929 -1.38,2.28529 0,2.82888 0.52964,3.05062 5.37393,2.24992 2.95566,-0.48854 7.7922,-0.89536 10.74786,-0.90403 z m 0,-7.16524 c 2.95566,-0.009 5.37393,-0.66065 5.37393,-1.44882 0,-0.82799 -4.53799,-1.43305 -10.74786,-1.43305 -8.98153,0 -10.74786,0.38409 -10.74786,2.33707 0,1.90318 0.99774,2.17216 5.37393,1.44883 2.95566,-0.48854 7.7922,-0.89536 10.74786,-0.90403 z m 5.37393,-5.74797 c 0,-0.78817 -2.41827,-1.44014 -5.37393,-1.44882 -2.95566,-0.009 -7.7922,-0.41549 -10.74786,-0.90403 -4.37619,-0.72333 -5.37393,-0.45434 -5.37393,1.44883 0,1.95299 1.76633,2.33707 10.74786,2.33707 6.20987,0 10.74786,-0.60506 10.74786,-1.43305 z m -0.11942,-8.05472 c 0.32841,-0.29896 -1.92864,-0.55066 -5.01566,-0.55934 -3.08703,-0.009 -8.03105,-0.41549 -10.98671,-0.90403 -4.42507,-0.73141 -5.37393,-0.46429 -5.37393,1.51282 0,2.11295 1.24672,2.28665 10.3896,1.4476 5.71428,-0.52441 10.65829,-1.19808 10.9867,-1.49705 z m -5.01566,-4.82693 c 8.45465,-0.0238 5.69501,-0.93719 -5.97104,-1.97639 -9.04512,-0.80573 -10.3896,-0.62177 -10.3896,1.42158 0,1.91473 0.98993,2.18347 5.37393,1.45883 2.95566,-0.48854 7.89968,-0.89535 10.98671,-0.90402 z m -0.23885,-7.16524 c 2.95566,-0.009 5.37393,-0.66065 5.37393,-1.44883 0,-0.82798 -4.53799,-1.43305 -10.74786,-1.43305 -8.98153,0 -10.74786,0.38409 -10.74786,2.33708 0,1.90317 0.99774,2.17215 5.37393,1.44882 2.95566,-0.48854 7.7922,-0.89535 10.74786,-0.90402 z m 5.37393,-5.74797 c 0,-0.78818 -2.41827,-1.44014 -5.37393,-1.44883 -2.95566,-0.009 -7.7922,-0.41548 -10.74786,-0.90402 -4.37619,-0.72333 -5.37393,-0.45435 -5.37393,1.44882 0,1.95299 1.76633,2.33708 10.74786,2.33708 6.20987,0 10.74786,-0.60507 10.74786,-1.43305 z m -0.20309,-7.91752 c 0.37442,-0.37443 -1.84498,-0.68786 -4.932,-0.69655 -3.08702,-0.009 -8.03104,-0.41548 -10.9867,-0.90402 -4.39715,-0.7268 -5.37393,-0.45855 -5.37393,1.47585 0,2.04985 1.36989,2.26051 10.30593,1.58479 5.66826,-0.42861 10.61227,-1.08564 10.9867,-1.46007 z m -5.17084,-4.96414 c 2.95566,-0.009 5.37393,-0.66065 5.37393,-1.44882 0,-0.82799 -4.53799,-1.43305 -10.74786,-1.43305 -8.98153,0 -10.74786,0.38408 -10.74786,2.33707 0,1.90318 0.99774,2.17216 5.37393,1.44883 2.95566,-0.48854 7.7922,-0.89536 10.74786,-0.90403 z m 5.37393,-7.18101 c 0,-0.78818 -2.41827,-1.44015 -5.37393,-1.44883 -2.95566,-0.009 -7.7922,-0.41548 -10.74786,-0.90402 -4.37619,-0.72334 -5.37393,-0.45435 -5.37393,1.44882 0,1.95299 1.76633,2.33707 10.74786,2.33707 6.20987,0 10.74786,-0.60506 10.74786,-1.43304 z m -5.13509,-5.71642 c 8.45465,-0.0238 5.69502,-0.93718 -5.97103,-1.97639 -9.04513,-0.80573 -10.3896,-0.62177 -10.3896,1.42159 0,1.91472 0.98992,2.18346 5.37393,1.45882 2.95566,-0.48854 7.89968,-0.89535 10.9867,-0.90402 z m -7.27798,-6.48331 c 1.70404,-0.18256 5.19409,-0.41422 7.75566,-0.51482 2.56158,-0.10059 4.65741,-0.82776 4.65741,-1.61594 0,-0.82798 -4.53799,-1.43304 -10.74786,-1.43304 -8.00119,0 -10.74786,0.48829 -10.74786,1.91072 0,2.7372 1.3882,3.74873 3.84883,2.80449 1.17456,-0.45072 3.52979,-0.96885 5.23382,-1.15141 z m 12.41307,-6.4299 c 0,-0.78818 -2.41827,-1.44014 -5.37393,-1.44883 -2.95566,-0.009 -7.7922,-0.41548 -10.74786,-0.90402 -4.37619,-0.72333 -5.37393,-0.45435 -5.37393,1.44883 0,1.95298 1.76633,2.33707 10.74786,2.33707 6.20987,0 10.74786,-0.60506 10.74786,-1.43305 z m -0.11942,-6.62001 c 1.2314,-1.12443 -0.87685,-1.60527 -10.9867,-2.50584 -9.50597,-0.84679 -10.3896,-0.69876 -10.3896,1.74051 0,2.41649 0.97242,2.60258 10.3896,1.98829 5.71428,-0.37275 10.6583,-0.92308 10.9867,-1.22296 z m -5.01566,-6.26165 c 8.45464,-0.0238 5.69501,-0.93718 -5.97104,-1.97638 -9.04513,-0.80574 -10.3896,-0.62177 -10.3896,1.42158 0,1.91472 0.98992,2.18346 5.37393,1.45883 2.95566,-0.48854 7.89968,-0.89536 10.9867,-0.90403 z m -1.13451,-5.74797 c 4.6176,0 6.26959,-0.56639 6.26959,-2.14957 0,-1.71966 -2.14957,-2.14957 -10.74786,-2.14957 -10.00324,0 -10.74786,0.21098 -10.74786,3.04523 0,2.64636 0.58657,2.92791 4.47827,2.14957 2.46306,-0.49261 7.29959,-0.89566 10.74786,-0.89566 z m 6.26959,-7.16524 c 0,-0.78817 -2.41827,-1.44014 -5.37393,-1.44882 -2.95566,-0.009 -7.7922,-0.41548 -10.74786,-0.90402 -4.37619,-0.72334 -5.37393,-0.45435 -5.37393,1.44882 0,1.95299 1.76633,2.33707 10.74786,2.33707 6.20987,0 10.74786,-0.60506 10.74786,-1.43305 z m -0.11942,-6.64692 c 1.25564,-1.08996 -0.92984,-1.58307 -10.9867,-2.47893 -9.65985,-0.86049 -10.3896,-0.72934 -10.3896,1.86723 0,2.58791 0.76195,2.73175 10.3896,1.96137 5.71428,-0.45725 10.65829,-1.0646 10.9867,-1.34967 z m -5.25451,-6.23474 c 2.95566,-0.009 5.37393,-0.66064 5.37393,-1.44882 0,-0.82798 -4.53799,-1.43304 -10.74786,-1.43304 -8.98153,0 -10.74786,0.38408 -10.74786,2.33707 0,1.90317 0.99774,2.17216 5.37393,1.44882 2.95566,-0.48854 7.7922,-0.89535 10.74786,-0.90403 z m 5.37393,-6.46448 c 0,-1.58318 -1.65199,-2.14958 -6.26959,-2.14958 -3.44827,0 -8.2848,-0.40304 -10.74786,-0.89565 -3.8917,-0.77834 -4.47827,-0.49679 -4.47827,2.14957 0,2.83425 0.74462,3.04523 10.74786,3.04523 8.59829,0 10.74786,-0.42992 10.74786,-2.14957 z m -5.13509,-6.43295 c 8.45465,-0.0238 5.69502,-0.93718 -5.97103,-1.97638 -9.04513,-0.80573 -10.3896,-0.62177 -10.3896,1.42158 0,1.91473 0.98992,2.18346 5.37393,1.45883 2.95566,-0.48854 7.89968,-0.89535 10.9867,-0.90403 z m -0.23884,-5.73219 c 3.89549,-0.0114 5.37393,-0.62786 5.37393,-2.24061 0,-1.83861 -1.86582,-2.17546 -10.74786,-1.94037 -9.66961,0.25594 -10.74786,0.56983 -10.74786,3.12887 0,2.4894 0.67069,2.73353 5.37393,1.95614 2.95566,-0.48855 7.7922,-0.89536 10.74786,-0.90403 z m 5.37393,-7.18101 c 0,-0.78818 -2.41827,-1.44015 -5.37393,-1.44882 -2.95566,-0.009 -7.7922,-0.41549 -10.74786,-0.90403 -4.37619,-0.72334 -5.37393,-0.45435 -5.37393,1.44882 0,1.95299 1.76633,2.33707 10.74786,2.33707 6.20987,0 10.74786,-0.60506 10.74786,-1.43304 z m -0.11942,-6.64769 c 1.35639,-1.17569 -1.02186,-1.72339 -8.47887,-1.95264 -11.82827,-0.36363 -12.89743,-0.18444 -12.89743,2.16162 0,1.81059 1.67894,2.01001 10.3896,1.23408 5.71428,-0.50903 10.65829,-1.1584 10.9867,-1.44306 z m -5.01566,-6.23397 c 8.45464,-0.0238 5.69501,-0.93719 -5.97104,-1.97639 -9.04513,-0.80573 -10.3896,-0.62177 -10.3896,1.42159 0,1.91473 0.98992,2.18345 5.37393,1.45882 2.95566,-0.48854 7.89968,-0.89535 10.9867,-0.90402 z m -0.23885,-5.7322 c 2.95566,-0.009 5.37393,-0.66064 5.37393,-1.44882 0,-0.82798 -4.53799,-1.43305 -10.74786,-1.43305 -8.98153,0 -10.74786,0.38408 -10.74786,2.33708 0,1.90317 0.99774,2.17216 5.37393,1.44882 2.95566,-0.48854 7.7922,-0.89535 10.74786,-0.90403 z m 5.37393,-7.18101 c 0,-0.78818 -2.41827,-1.44015 -5.37393,-1.44882 -2.95566,-0.009 -7.7922,-0.41549 -10.74786,-0.90403 -4.37619,-0.72334 -5.37393,-0.45434 -5.37393,1.44882 0,1.953 1.76633,2.33708 10.74786,2.33708 6.20987,0 10.74786,-0.60507 10.74786,-1.43305 z m -5.13509,-5.71642 c 8.45465,-0.0238 5.69502,-0.93718 -5.97103,-1.97638 -9.04513,-0.80574 -10.3896,-0.62177 -10.3896,1.42158 0,1.91473 0.98992,2.18346 5.37393,1.45883 2.95566,-0.48854 7.89968,-0.89536 10.9867,-0.90403 z m -0.23884,-7.16524 c 2.95566,-0.009 5.37393,-0.66064 5.37393,-1.44882 0,-0.82798 -4.53799,-1.43305 -10.74786,-1.43305 -8.98153,0 -10.74786,0.38408 -10.74786,2.33708 0,1.90316 0.99774,2.17216 5.37393,1.44882 2.95566,-0.48854 7.7922,-0.89536 10.74786,-0.90403 z"
         id="path3037" />
      <path
         style="fill:#333333;fill-opacity:1;stroke-width:1.43305"
         d="m 885.53443,461.9206 c 0,-1.87645 -2.55286,-2.2204 -16.48005,-2.2204 h -16.48005 v -5.01566 c 0,-2.75862 0.64487,-5.01567 1.43304,-5.01567 0.94201,0 1.43305,-35.10968 1.43305,-102.46294 0,-67.35326 -0.49104,-102.46294 -1.43305,-102.46294 -0.78817,0 -1.43304,-2.25705 -1.43304,-5.01567 v -5.01567 h 16.48005 c 10.03134,0 16.48005,-0.56075 16.48005,-1.43304 0,-0.94107 32.85975,-1.43305 95.71314,-1.43305 81.36833,0 96.97713,0.32923 104.14693,2.19673 27.4285,7.14422 48.3946,31.13719 52.5875,60.17944 1.3747,9.52216 1.2719,13.2645 -0.6171,22.46173 -4.3456,21.15774 -16.402,40.02257 -33.6924,52.71905 -11.6429,8.54948 -21.8382,12.62404 -36.1109,14.43177 -22.4949,2.84913 -36.3959,14.30646 -54.7845,45.15411 -6.0756,10.192 -13.44586,20.99231 -16.37838,24.00071 -10.24977,10.51497 -8.67809,10.24533 -62.49892,10.72281 -42.90633,0.38066 -48.36537,0.17847 -48.36537,-1.79131 z m -5.73219,-20.96323 c 0,-0.72591 -2.41827,-1.32693 -5.37393,-1.33562 -2.95566,-0.009 -7.7922,-0.41548 -10.74786,-0.90402 -4.61926,-0.76351 -5.3744,-0.50975 -5.37727,1.80709 -0.003,2.44104 1.01103,2.65085 10.74786,2.22386 5.91316,-0.25933 10.7512,-1.06542 10.7512,-1.79131 z m -0.11942,-6.53447 c 1.25636,-1.08899 -0.93136,-1.58246 -10.9867,-2.47817 -9.76461,-0.86982 -10.3896,-0.75188 -10.3896,1.96061 0,2.71249 0.62499,2.83043 10.3896,1.96061 5.71428,-0.50902 10.65829,-1.15839 10.9867,-1.44305 z m -6.5293,-5.72801 c 10.26442,-1.40689 7.86757,-3.38784 -4.09914,-3.38784 -8.59829,0 -10.74786,0.42991 -10.74786,2.14957 0,2.38597 4.02462,2.72163 14.84699,1.23827 z m 6.64872,-6.97046 c 0,-1.52578 -1.55948,-2.15414 -5.37393,-2.16535 -2.95566,-0.009 -7.7922,-0.41548 -10.74786,-0.90402 -4.80646,-0.79446 -5.37393,-0.56581 -5.37393,2.16535 0,2.84467 0.73538,3.05359 10.74786,3.05359 8.59829,0 10.74786,-0.42991 10.74786,-2.14957 z m 0,-6.44872 c 0,-0.78817 -2.41827,-1.44014 -5.37393,-1.44882 -2.95566,-0.009 -7.7922,-0.41549 -10.74786,-0.90403 -4.37619,-0.72333 -5.37393,-0.45434 -5.37393,1.44883 0,1.95299 1.76633,2.33707 10.74786,2.33707 6.20987,0 10.74786,-0.60506 10.74786,-1.43305 z m -5.37393,-5.71641 c 2.95566,-0.009 5.37393,-0.66065 5.37393,-1.44883 0,-0.78817 -3.50874,-1.43304 -7.79719,-1.43304 -4.28846,0 -8.19574,-0.64488 -8.68286,-1.43305 -0.55323,-0.89514 2.37353,-1.43305 7.79719,-1.43305 6.76273,0 8.68286,-0.47536 8.68286,-2.14957 0,-1.71966 -2.14957,-2.14958 -10.74786,-2.14958 h -10.74786 v 5.9197 5.91969 l 5.37393,-0.88825 c 2.95566,-0.48854 7.7922,-0.89535 10.74786,-0.90402 z m 5.37393,-13.62974 c 0,-1.65018 -1.83112,-2.14957 -7.88177,-2.14957 -4.33497,0 -7.88176,-0.64487 -7.88176,-1.43305 0,-0.78817 3.54679,-1.43304 7.88176,-1.43304 4.33498,0 7.88177,-0.64488 7.88177,-1.43305 0,-0.78818 -2.41827,-1.44014 -5.37393,-1.44883 -2.95566,-0.009 -7.7922,-0.41548 -10.74786,-0.90402 l -5.37393,-0.88825 v 5.91969 5.9197 h 10.74786 c 8.59829,0 10.74786,-0.42992 10.74786,-2.14958 z m -5.37393,-12.16513 c 8.71071,-0.0255 6.13699,-2.85678 -2.8661,-3.15283 l -8.24002,-0.27098 8.24002,-0.51707 c 6.00535,-0.37683 8.24003,-1.08063 8.24003,-2.59512 0,-1.44315 -1.64192,-2.08288 -5.37393,-2.09384 -2.95566,-0.009 -7.7922,-0.41548 -10.74786,-0.90402 -4.80646,-0.79446 -5.37393,-0.56582 -5.37393,2.16535 0,1.88948 0.95604,3.11696 2.50783,3.21982 2.38842,0.15833 2.38842,0.19745 0,0.82161 -1.37931,0.36044 -2.50783,1.65976 -2.50783,2.88737 0,1.78173 1.08406,2.05281 5.37393,1.34374 2.95566,-0.48854 7.7922,-0.89536 10.74786,-0.90403 z m 0,-12.89743 c 10.1024,-0.0297 5.38257,-2.16475 -5.38155,-2.43443 -8.91468,-0.22336 -10.74024,0.11299 -10.74024,1.97881 0,1.80012 1.07048,2.07095 5.37393,1.35964 2.95566,-0.48854 7.7922,-0.89535 10.74786,-0.90402 z m 0,-5.73219 c 3.81445,-0.0115 5.37393,-0.63957 5.37393,-2.16535 0,-1.71966 -2.14957,-2.14957 -10.74786,-2.14957 -10.01248,0 -10.74786,0.20892 -10.74786,3.05359 0,2.73116 0.56747,2.95981 5.37393,2.16535 2.95566,-0.48854 7.7922,-0.89535 10.74786,-0.90402 z m 5.37393,-7.18102 c 0,-0.78818 -2.41827,-1.44014 -5.37393,-1.44883 -2.95566,-0.009 -7.7922,-0.41548 -10.74786,-0.90402 -4.37619,-0.72333 -5.37393,-0.45435 -5.37393,1.44883 0,1.95298 1.76633,2.33707 10.74786,2.33707 6.20987,0 10.74786,-0.60506 10.74786,-1.43305 z m -0.11942,-6.64768 c 1.25636,-1.08899 -0.93136,-1.58246 -10.9867,-2.47817 -9.76461,-0.86982 -10.3896,-0.75188 -10.3896,1.96061 0,2.71249 0.62499,2.83043 10.3896,1.96061 5.71428,-0.50902 10.65829,-1.15839 10.9867,-1.44305 z m -5.01566,-6.23398 c 8.45464,-0.0238 5.69501,-0.93718 -5.97104,-1.97638 -9.04513,-0.80574 -10.3896,-0.62177 -10.3896,1.42158 0,1.91472 0.98992,2.18346 5.37393,1.45883 2.95566,-0.48854 7.89968,-0.89536 10.9867,-0.90403 z m -0.23885,-5.73219 c 3.81445,-0.0112 5.37393,-0.63957 5.37393,-2.16535 0,-1.71966 -2.14957,-2.14957 -10.74786,-2.14957 -10.01248,0 -10.74786,0.20893 -10.74786,3.0536 0,2.73115 0.56747,2.9598 5.37393,2.16534 2.95566,-0.48854 7.7922,-0.89535 10.74786,-0.90402 z m 5.37393,-7.18102 c 0,-0.78817 -2.41827,-1.44014 -5.37393,-1.44882 -2.95566,-0.009 -7.7922,-0.41548 -10.74786,-0.90402 -4.37619,-0.72334 -5.37393,-0.45435 -5.37393,1.44882 0,1.95299 1.76633,2.33707 10.74786,2.33707 6.20987,0 10.74786,-0.60506 10.74786,-1.43305 z m -0.11942,-6.64768 c 1.25636,-1.08898 -0.93136,-1.58245 -10.9867,-2.47817 -9.76461,-0.86982 -10.3896,-0.75188 -10.3896,1.96061 0,2.71249 0.62499,2.83044 10.3896,1.96062 5.71428,-0.50903 10.65829,-1.1584 10.9867,-1.44306 z m -3.82146,-6.14877 c 2.16748,-0.0555 3.94088,-0.74585 3.94088,-1.53403 0,-0.82798 -4.53799,-1.43304 -10.74786,-1.43304 -8.80045,0 -10.74786,0.40669 -10.74786,2.24456 0,1.82209 1.28123,2.11083 6.80698,1.53403 3.74383,-0.39079 8.58037,-0.75597 10.74786,-0.81152 z m 3.94088,-6.54969 c 0,-1.52579 -1.55948,-2.15415 -5.37393,-2.16535 -2.95566,-0.009 -7.7922,-0.41549 -10.74786,-0.90403 -4.80646,-0.79446 -5.37393,-0.5658 -5.37393,2.16535 0,2.84467 0.73538,3.0536 10.74786,3.0536 8.59829,0 10.74786,-0.42992 10.74786,-2.14957 z m -5.73219,-6.37557 6.44871,-1.14746 -5.73219,-0.19514 c -3.1527,-0.10733 -8.15046,-0.59486 -11.10612,-1.0834 -4.37619,-0.72334 -5.37393,-0.45435 -5.37393,1.44882 0,2.62602 4.81839,2.92471 15.76353,0.97718 z m 0.35826,-5.78957 c 3.81445,-0.0112 5.37393,-0.63957 5.37393,-2.16535 0,-1.71965 -2.14957,-2.14957 -10.74786,-2.14957 -10.01248,0 -10.74786,0.20893 -10.74786,3.0536 0,2.73115 0.56747,2.9598 5.37393,2.16535 2.95566,-0.48855 7.7922,-0.89536 10.74786,-0.90403 z m 5.37393,-7.18101 c 0,-0.78818 -2.41827,-1.44015 -5.37393,-1.44882 -2.95566,-0.009 -7.7922,-0.41549 -10.74786,-0.90403 -4.37619,-0.72334 -5.37393,-0.45435 -5.37393,1.44882 0,1.95299 1.76633,2.33707 10.74786,2.33707 6.20987,0 10.74786,-0.60506 10.74786,-1.43304 z m -0.11942,-6.64769 c 1.25636,-1.08898 -0.93136,-1.58245 -10.9867,-2.47817 -9.76461,-0.86982 -10.3896,-0.75188 -10.3896,1.96062 0,2.71249 0.62499,2.83043 10.3896,1.96061 5.71428,-0.50903 10.65829,-1.1584 10.9867,-1.44306 z m -2.74668,-6.24975 c 3.12153,-0.99968 2.84487,-1.16777 -2.14957,-1.30597 -3.1527,-0.0872 -8.15046,-0.55833 -11.10612,-1.04687 -4.37619,-0.72334 -5.37393,-0.45435 -5.37393,1.44882 0,1.8821 1.46464,2.30926 7.5235,2.19422 4.13793,-0.0786 9.13568,-0.65915 11.10612,-1.2902 z m -2.50783,-5.71642 c 3.81445,-0.0112 5.37393,-0.63956 5.37393,-2.16534 0,-1.63009 -1.99135,-2.21506 -8.24003,-2.42054 l -8.24002,-0.27097 8.24002,-0.51707 c 9.08307,-0.56997 11.42532,-3.23079 2.8661,-3.25591 -2.95566,-0.009 -7.7922,-0.41549 -10.74786,-0.90403 -4.37619,-0.72334 -5.37393,-0.45434 -5.37393,1.44882 0,1.28539 1.12852,2.41188 2.50783,2.50331 2.38842,0.15832 2.38842,0.19745 0,0.82161 -1.37931,0.36045 -2.50783,1.9822 -2.50783,3.60388 0,2.60973 0.61748,2.84646 5.37393,2.06027 2.95566,-0.48854 7.7922,-0.89535 10.74786,-0.90403 z m 0,-12.89743 c 2.95566,-0.009 5.37393,-0.66064 5.37393,-1.44882 0,-0.78818 -3.38558,-1.47837 -7.5235,-1.53377 -12.35556,-0.16541 -14.91806,-2.54781 -2.8661,-2.66465 8.23507,-0.0798 10.3896,-0.54649 10.3896,-2.2503 0,-1.71965 -2.14957,-2.14957 -10.74786,-2.14957 h -10.74786 v 5.9197 5.91969 l 5.37393,-0.88825 c 2.95566,-0.48854 7.7922,-0.89536 10.74786,-0.90403 z"
         id="path3035" />
      <path
         style="fill:#333333;fill-opacity:1;stroke-width:1.43305"
         d="m 885.89269,462.20804 c 0.26678,-1.3339 -3.94148,-1.89441 -16.48005,-2.19506 l -16.83831,-0.40373 v -4.9702 c 0,-2.7336 0.64487,-4.97018 1.43304,-4.97018 0.94201,0 1.43305,-35.10968 1.43305,-102.46294 0,-67.35326 -0.49104,-102.46294 -1.43305,-102.46294 -0.78817,0 -1.43304,-2.25705 -1.43304,-5.01567 v -5.01567 h 16.48005 c 10.03134,0 16.48005,-0.56075 16.48005,-1.43304 0,-0.94123 32.82935,-1.42722 95.65596,-1.41604 103.43991,0.0184 102.87731,-0.019 118.47611,7.87326 16.2525,8.22301 29.6683,24.17742 35.3604,42.05155 14.1799,44.52661 -19.7404,96.01851 -67.095,101.85211 -22.8262,2.81194 -37.0211,14.33177 -54.7943,44.46802 -5.7892,9.8161 -13.3767,20.89529 -16.86113,24.62043 -10.21954,10.92551 -12.21851,11.27141 -65.13978,11.27141 -35.71751,0 -45.5246,-0.38829 -45.244,-1.79131 z m -6.09045,-20.42094 c 0,-1.52578 -1.55948,-2.15414 -5.37393,-2.16535 -2.95566,-0.009 -7.7922,-0.41548 -10.74786,-0.90402 -4.80646,-0.79445 -5.37393,-0.56581 -5.37393,2.16535 0,2.84467 0.73538,3.0536 10.74786,3.0536 8.59829,0 10.74786,-0.42992 10.74786,-2.14958 z m -4.65741,-6.37589 c 2.56158,-0.0401 4.65741,-0.71769 4.65741,-1.50587 0,-0.78818 -3.1863,-1.43305 -7.08067,-1.43305 -3.89436,0 -7.48909,-0.66085 -7.98828,-1.46856 -0.49919,-0.80769 -0.37603,-1.3762 0.27369,-1.26334 0.64972,0.11292 4.24444,0.12883 7.98828,0.0355 5.01986,-0.12517 6.80698,-0.73407 6.80698,-2.3193 0,-1.71966 -2.14957,-2.14957 -10.74786,-2.14957 h -10.74786 v 5.8658 5.86581 l 6.09045,-0.77732 c 3.34975,-0.42752 8.18629,-0.81007 10.74786,-0.85013 z m 5.37393,-13.68678 c 0,-0.78818 -3.40244,-1.62856 -7.56098,-1.86751 -9.07423,-0.5214 -8.67346,-3.14816 0.48032,-3.14816 3.50028,0 6.36414,-0.64487 6.36414,-1.43305 0,-0.78817 -2.41827,-1.44014 -5.37393,-1.44882 -2.95566,-0.009 -7.70861,-0.40192 -10.56212,-0.87388 -5.00589,-0.82797 -5.21389,-0.68895 -5.91982,3.95665 -0.40239,2.64813 -0.43176,5.32458 -0.0653,5.94767 0.97138,1.6514 22.63765,0.56711 22.63765,-1.1329 z m -3.94088,-12.16846 c 1.7734,-0.007 3.22436,-0.65732 3.22436,-1.4455 0,-0.78817 -3.26242,-1.43304 -7.24982,-1.43304 -4.46829,0 -6.91001,-0.54982 -6.36414,-1.43305 0.48712,-0.78818 3.74954,-1.43305 7.24982,-1.43305 4.70165,0 6.36414,-0.56153 6.36414,-2.14957 0,-1.71966 -2.14957,-2.14958 -10.74786,-2.14958 h -10.74786 v 5.93181 5.9318 l 7.5235,-0.90368 c 4.13793,-0.49703 8.97446,-0.90929 10.74786,-0.91614 z m 3.22436,-13.62641 c 0,-1.62747 -1.7609,-2.14957 -7.24982,-2.14957 -4.46829,0 -6.91001,-0.54982 -6.36414,-1.43305 0.48712,-0.78817 3.74954,-1.43304 7.24982,-1.43304 3.50028,0 6.36414,-0.64488 6.36414,-1.43305 0,-0.78818 -2.41827,-1.44014 -5.37393,-1.44883 -2.95566,-0.009 -7.70861,-0.40191 -10.56212,-0.87387 -5.00589,-0.82797 -5.21389,-0.68895 -5.91982,3.95665 -0.40239,2.64812 -0.44792,5.29842 -0.10117,5.88955 0.34676,0.59113 5.42894,1.07479 11.29375,1.07479 8.52311,0 10.66329,-0.43144 10.66329,-2.14958 z m -4.39335,-12.1809 c 3.92613,0 4.39335,-0.4572 4.39335,-4.29915 0,-4.00972 -0.36177,-4.3002 -5.37393,-4.31492 -2.95566,-0.009 -7.7922,-0.41548 -10.74786,-0.90402 l -5.37393,-0.88825 v 5.82451 c 0,5.27552 0.37144,5.87237 3.94088,6.33232 2.16749,0.27932 5.02701,-2.8e-4 6.35451,-0.62132 1.32749,-0.62104 4.39063,-1.12917 6.80698,-1.12917 z m -3.13015,-12.39298 c 9.59541,-1.15254 9.77551,-3.37055 0.27368,-3.37055 -4.46829,0 -6.91001,-0.54982 -6.36414,-1.43305 0.48712,-0.78818 3.74954,-1.43305 7.24982,-1.43305 4.70165,0 6.36414,-0.56153 6.36414,-2.14957 0,-1.71966 -2.14957,-2.14957 -10.74786,-2.14957 h -10.74786 v 5.73219 c 0,6.43865 0.0932,6.47067 13.97222,4.8036 z m 7.5235,-14.11841 c 0,-1.65896 -1.88068,-2.15458 -8.24003,-2.17152 -5.84883,-0.0156 -7.61623,-0.42507 -6.09045,-1.4111 1.18226,-0.76405 4.89028,-1.39905 8.24002,-1.41111 3.34975,-0.0121 6.09046,-0.66681 6.09046,-1.45499 0,-0.78818 -2.41827,-1.44014 -5.37393,-1.44883 -2.95566,-0.009 -7.7922,-0.41548 -10.74786,-0.90402 l -5.37393,-0.88825 v 5.9197 5.91969 h 10.74786 c 8.59829,0 10.74786,-0.42992 10.74786,-2.14957 z m -3.48933,-12.18091 c 1.91913,0 3.48933,-0.64487 3.48933,-1.43305 0,-0.79176 -4.00803,-1.47812 -8.95655,-1.53377 -10.18096,-0.11449 -7.62462,-2.49116 2.86609,-2.66465 4.41361,-0.073 6.09046,-0.69255 6.09046,-2.2503 0,-1.71966 -2.14957,-2.14957 -10.74786,-2.14957 h -10.74786 v 5.63701 c 0,5.07239 0.39472,5.68728 3.94088,6.13901 2.16749,0.27609 5.43383,-0.003 7.25853,-0.62135 1.82471,-0.61783 4.88785,-1.12333 6.80698,-1.12333 z m 3.48933,-13.7202 c 0,-1.76857 -1.47028,-2.20537 -6.80698,-2.02223 -9.20855,0.31599 -10.01993,0.15917 -7.5235,-1.45415 1.18226,-0.76404 4.89028,-1.39903 8.24002,-1.4111 3.34975,-0.0121 6.09046,-0.66682 6.09046,-1.455 0,-0.78817 -2.41827,-1.44014 -5.37393,-1.44882 -2.95566,-0.009 -7.7922,-0.41548 -10.74786,-0.90402 -4.80646,-0.79446 -5.37393,-0.56581 -5.37393,2.16534 0,1.8895 0.95604,3.11697 2.50783,3.21984 2.38842,0.15832 2.38842,0.19744 0,0.8216 -1.37931,0.36045 -2.50783,1.57538 -2.50783,2.69986 0,1.58889 2.39508,2.04449 10.74786,2.04449 8.82327,0 10.74786,-0.40394 10.74786,-2.25581 z m -1.08719,-11.14439 c 0.59795,0.36955 1.08719,-0.33345 1.08719,-1.56223 0,-1.83658 -2.03206,-2.23414 -11.41941,-2.23414 -9.35675,0 -11.2762,0.37319 -10.62657,2.06608 0.9651,2.51503 6.48268,3.30124 14.15181,2.01653 3.14588,-0.52699 6.20902,-0.6558 6.80698,-0.28624 z m 1.08719,-7.37899 c 0,-1.6207 -1.74211,-2.14958 -7.08067,-2.14958 -7.11662,0 -11.18407,-1.96855 -5.35519,-2.59178 1.71658,-0.18354 5.3781,-0.89921 8.13672,-1.59037 l 5.01566,-1.25666 -5.73219,-0.16246 c -3.1527,-0.0894 -8.15046,-0.56218 -11.10612,-1.05072 -4.37619,-0.72334 -5.37393,-0.45435 -5.37393,1.44882 0,1.28539 1.12852,2.41188 2.50783,2.50331 2.38842,0.15832 2.38842,0.19745 0,0.8216 -1.37931,0.36045 -2.50783,1.89783 -2.50783,3.41639 0,2.48057 1.09171,2.76102 10.74786,2.76102 8.59829,0 10.74786,-0.42992 10.74786,-2.14957 z m -3.32021,-12.16846 c 2.54534,-0.0102 3.10573,-0.81384 3.00628,-4.3116 -0.11244,-3.95448 -0.53558,-4.30041 -5.27808,-4.31491 -2.83572,-0.009 -7.49521,-0.40269 -10.35443,-0.87558 -5.10549,-0.8444 -5.20949,-0.76635 -5.80781,4.35872 -0.33508,2.87019 -0.25277,5.58626 0.18291,6.03572 0.43568,0.44946 4.0165,0.43535 7.95738,-0.0313 3.94088,-0.4667 8.57307,-0.85415 10.29375,-0.861 z m -0.77892,-12.90989 c 2.25452,0 4.09913,-0.64487 4.09913,-1.43304 0,-0.78818 -3.1863,-1.43305 -7.08067,-1.43305 -9.52726,0 -10.47143,-2.27228 -1.12144,-2.69892 7.02446,-0.32052 9.42925,-0.95061 8.08269,-2.11779 -0.32841,-0.28465 -5.35072,-0.9413 -11.16069,-1.45922 -9.91942,-0.88424 -10.51999,-0.77497 -9.84872,1.79197 0.39318,1.5035 0.19158,3.58032 -0.44798,4.61516 -2.04581,3.31019 0.28463,4.52961 6.91877,3.6203 3.55288,-0.48697 8.30438,-0.88541 10.55891,-0.88541 z m 0.87477,-12.88497 c 2.62449,-0.0101 3.22436,-0.81229 3.22436,-4.3116 0,-4.00973 -0.36177,-4.30021 -5.37393,-4.31492 -2.95566,-0.009 -7.7922,-0.41549 -10.74786,-0.90403 l -5.37393,-0.88825 v 6.1193 6.11931 l 7.5235,-0.90368 c 4.13793,-0.49702 8.97446,-0.90928 10.74786,-0.91613 z m 0,-12.89744 c 1.7734,-0.007 3.22436,-0.65732 3.22436,-1.4455 0,-0.78818 -3.33184,-1.43305 -7.40408,-1.43305 -8.89155,0 -8.04791,-1.72363 1.37386,-2.8069 10.16123,-1.1683 7.45751,-3.58663 -4.5361,-4.05728 l -10.58731,-0.41546 -0.60573,4.12708 c -1.04208,7.10018 -0.12429,7.89815 7.96604,6.92606 4.03953,-0.48537 8.79556,-0.88809 10.56896,-0.89495 z"
         id="path3033" />
      <path
         style="fill:#333333;fill-opacity:1;stroke-width:1.43305"
         d="m 886.44925,461.84978 c -0.66264,-1.72681 -3.86353,-2.14958 -16.27511,-2.14958 H 854.7239 V 347.20593 234.71165 h 16.12179 c 10.13626,0 16.12179,-0.54962 16.12179,-1.48039 0,-1.008 31.20991,-1.35097 97.80553,-1.07479 l 97.80549,0.40561 8.3693,3.37567 c 19.536,7.87971 35.7035,23.55665 42.593,41.30071 4.8258,12.42895 5.5415,34.28372 1.55,47.3296 -5.8484,19.11509 -19.2476,36.75546 -36.2809,47.76459 -10.0846,6.51802 -24.4089,11.41601 -33.3864,11.41601 -9.1518,0 -24.352,8.17578 -33.9341,18.25223 -4.3197,4.54253 -12.642,16.32005 -18.494,26.17226 -12.924,21.7583 -22.19687,31.73409 -31.72905,34.13431 -4.43333,1.11633 -21.56355,1.69189 -50.35564,1.69189 -37.46611,0 -43.75323,-0.30397 -44.46146,-2.14957 z m -5.93049,-20.7792 c 0,-1.66384 -1.57106,-2.06985 -6.95262,-1.79674 -3.82394,0.19405 -7.68667,-0.10089 -8.58384,-0.65534 -2.08783,-1.29034 3.70244,-2.94724 10.96363,-3.13727 8.30706,-0.21739 4.89283,-3.00894 -3.68011,-3.00894 -8.93483,0 -7.59731,-2.47608 1.69285,-3.13389 3.48554,-0.2468 6.60242,-1.25482 6.9264,-2.24004 0.44001,-1.33805 -2.47022,-1.79131 -11.50133,-1.79131 h -12.0904 l -0.0143,8.24003 c -0.008,4.53201 0.27433,8.74983 0.62708,9.37292 0.35275,0.62309 5.5849,0.94552 11.627,0.71652 8.62463,-0.32687 10.98567,-0.87835 10.98567,-2.56594 z m 0.36642,-18.98789 c -0.33225,-1.01053 -3.97588,-2.10363 -8.35945,-2.50783 -8.3534,-0.77028 -6.6763,-2.8661 2.29347,-2.8661 2.64764,0 5.21244,-0.64487 5.69956,-1.43305 0.54945,-0.88902 -2.1065,-1.43304 -6.99609,-1.43304 -4.33497,0 -8.21389,-0.5374 -8.61982,-1.19421 -0.40594,-0.65682 0.0397,-1.27793 0.99021,-1.38027 15.97135,-1.71947 19.98708,-4.59076 6.42052,-4.59076 -8.80487,0 -8.2528,-1.26382 1.13892,-2.60725 3.75532,-0.53718 7.09646,-1.78248 7.42474,-2.76734 0.44599,-1.33796 -2.46337,-1.79066 -11.50802,-1.79066 H 857.2643 v 5.7322 c 0,4.81799 0.48307,5.76332 3.02894,5.92734 l 3.02895,0.19515 -3.02895,0.59544 c -2.47125,0.4858 -3.02894,1.6372 -3.02894,6.25356 v 5.65813 h 12.10492 c 9.04267,0 11.95592,-0.45316 11.51596,-1.79131 z m 0,-25.79486 c -0.33225,-1.01053 -3.97588,-2.10363 -8.35945,-2.50784 -8.3534,-0.77028 -6.6763,-2.86609 2.29347,-2.86609 2.64764,0 5.21244,-0.64488 5.69956,-1.43305 0.5474,-0.8857 -2.0202,-1.44143 -6.7224,-1.45499 -4.18444,-0.0121 -8.57538,-0.68384 -9.75765,-1.49281 -1.91073,-1.30742 -1.91073,-1.43479 0,-1.14631 1.18227,0.1785 5.42767,-0.16276 9.43423,-0.75839 6.85303,-1.01877 7.28466,-1.33166 7.28466,-5.28047 0,-3.88373 -0.39569,-4.19751 -5.29333,-4.19751 -2.91134,0 -8.17779,-0.39537 -11.70323,-0.87858 l -6.40989,-0.87857 v 12.34296 12.34296 h 12.06149 c 9.00793,0 11.91239,-0.45351 11.47254,-1.79131 z m -0.50811,-27.09891 c -0.40919,-0.66209 -4.03776,-1.20379 -8.06349,-1.20379 -8.76841,0 -7.94469,-1.72049 1.34386,-2.80691 3.64769,-0.42664 6.89868,-1.5818 7.22443,-2.56702 0.43496,-1.31557 -2.38905,-1.86791 -10.63328,-2.0797 l -11.22555,-0.2884 11.20486,-0.49019 c 13.208,-0.57782 14.65977,-3.52531 2.29783,-4.66522 -8.73182,-0.80517 -6.5066,-2.86609 3.09457,-2.86609 3.08824,0 5.61499,-0.64487 5.61499,-1.43305 0,-0.78818 -3.50874,-1.43305 -7.79719,-1.43305 -9.23889,0 -11.89023,-2.1719 -3.22347,-2.64056 12.90166,-0.69768 14.67697,-4.52468 2.09895,-4.52468 -8.82175,0 -7.92381,-1.72817 1.45844,-2.8069 6.36863,-0.73225 6.74674,-1.01666 6.74674,-5.07486 0,-4.16887 -0.23884,-4.32086 -7.88176,-5.01567 -6.30896,-0.57354 -7.16685,-0.9271 -4.29915,-1.77174 1.97045,-0.58037 5.67846,-1.06403 8.24003,-1.07479 2.56157,-0.0108 4.65741,-0.66444 4.65741,-1.45262 0,-0.78817 -3.65428,-1.43304 -8.12061,-1.43304 -9.43162,0 -9.10711,-1.67824 0.54276,-2.80691 7.44604,-0.87091 10.28398,-4.27153 3.75639,-4.50118 -3.74956,-0.13191 -3.80707,-0.21417 -0.75137,-1.07479 5.90331,-1.66263 4.04272,-3.77954 -4.02546,-4.58001 -8.30828,-0.8243 -7.37722,-2.41357 1.82125,-3.10876 8.23073,-0.62205 7.06186,-3.18347 -1.82125,-3.99103 -6.30896,-0.57354 -7.16685,-0.92709 -4.29915,-1.77174 1.97045,-0.58037 5.57098,-1.06402 8.00119,-1.07479 3.9498,-0.0175 4.41856,-0.47566 4.41856,-4.31871 0,-4.19427 -0.1777,-4.30263 -7.28466,-4.44199 -4.00656,-0.0786 -8.89684,-0.6705 -10.86728,-1.31541 -3.52352,-1.15323 -3.5117,-1.17485 0.71653,-1.31109 16.27792,-0.52447 24.00699,-4.37319 8.87197,-4.41784 -5.33141,-0.0157 -6.82993,-0.4155 -5.28935,-1.4111 1.18226,-0.76404 4.52978,-1.39904 7.43892,-1.4111 2.90915,-0.0121 5.68791,-0.66682 6.17503,-1.455 0.54945,-0.88901 -2.1065,-1.43305 -6.99609,-1.43305 -4.33497,0 -8.21389,-0.53739 -8.61982,-1.1942 -0.40594,-0.65682 0.0397,-1.27794 0.99021,-1.38027 13.75213,-1.48054 14.86454,-1.94328 14.86454,-6.18326 0,-3.81708 -0.41252,-4.1397 -5.29333,-4.1397 -2.91134,0 -8.17026,-0.39432 -11.68649,-0.87628 l -6.39314,-0.87627 0.006,53.82779 0.006,53.82779 4.39552,0.42953 c 5.95346,0.58176 19.50946,-1.88544 18.58432,-3.38235 z m -16.60706,-53.77246 c 1.03449,-0.41397 2.27049,-0.36305 2.74668,0.11314 0.47619,0.47619 -0.3702,0.81489 -1.88088,0.75266 -1.66941,-0.0688 -2.00899,-0.40833 -0.8658,-0.8658 z m 13.344,-53.47689 c 2.49537,0 3.91987,-0.59957 3.40475,-1.43305 -0.48712,-0.78818 -4.17945,-1.43305 -8.20518,-1.43305 -8.80487,0 -8.2528,-1.26382 1.13892,-2.60725 3.75532,-0.53717 7.09646,-1.78247 7.42474,-2.76733 0.44599,-1.33796 -2.46337,-1.79066 -11.50802,-1.79066 H 857.2643 v 5.65597 c 0,5.2748 0.30071,5.68749 4.46199,6.12358 2.4541,0.25719 5.95494,-0.0309 7.77964,-0.6403 1.82471,-0.60935 5.24834,-1.10791 7.60808,-1.10791 z"
         id="path3031" />
      <path
         style="fill:#333333;fill-opacity:1;stroke-width:1.43305"
         d="m 886.96748,461.93855 c 0,-1.89933 -2.496,-2.23835 -16.48005,-2.23835 h -16.48006 v -4.77682 c 0,-2.62726 0.3988,-5.17562 0.88621,-5.66303 0.48741,-0.48742 0.77354,-13.63611 0.63583,-29.21934 -0.1377,-15.58322 0.16678,-27.91597 0.67663,-27.40614 0.50984,0.50985 1.0298,12.10012 1.15547,25.75613 l 0.22848,24.82915 h 11.46439 c 9.2352,0 11.46438,-0.41798 11.46438,-2.14957 0,-1.52859 -2.06995,-2.35656 -7.16524,-2.8661 -5.93466,-0.59347 -6.54995,-0.89774 -3.58262,-1.77175 1.97044,-0.58037 5.35602,-1.06402 7.52351,-1.07478 2.16748,-0.0108 3.94088,-0.66443 3.94088,-1.45261 0,-0.78818 -3.65428,-1.43305 -8.12061,-1.43305 -9.54348,0 -9.34697,-1.2219 0.42122,-2.61918 6.52609,-0.93352 6.93224,-1.24746 7.28793,-5.63343 l 0.37667,-4.64482 -8.22263,-0.10075 c -9.30406,-0.11392 -6.6286,-2.48804 3.00291,-2.66463 3.55063,-0.0651 5.29398,-0.69884 4.92959,-1.792 -0.3451,-1.03532 -3.45196,-1.63833 -8.01052,-1.55479 -9.23474,0.16925 -8.48705,-1.87445 1.1718,-3.20287 9.70385,-1.33463 9.06389,-3.54946 -1.07639,-3.72526 -6.28863,-0.10899 -7.39159,-0.41455 -4.65741,-1.29018 1.97045,-0.63105 5.61397,-1.21165 8.09673,-1.2902 4.1764,-0.13213 4.5141,-0.51808 4.5141,-5.15852 v -5.01567 l -8.09672,-0.10074 c -5.84793,-0.0727 -7.30069,-0.44277 -5.23063,-1.33231 1.57635,-0.67738 5.28437,-1.27693 8.24003,-1.33232 8.52625,-0.15981 6.23352,-2.96682 -2.42326,-2.96682 -9.25481,0 -11.7136,-1.97613 -3.17021,-2.54789 9.18386,-0.61462 10.5206,-1.37719 10.65425,-6.078 0.12014,-4.2252 0.0379,-4.27154 -7.57989,-4.27154 -8.33981,0 -12.00468,-2.07719 -4.54699,-2.57715 13.59725,-0.91158 16.16512,-4.4858 3.3989,-4.73094 -5.87565,-0.11282 -6.68605,-0.38396 -3.85631,-1.2902 1.97045,-0.63104 5.67063,-1.21164 8.22264,-1.2902 4.33079,-0.13328 4.61531,-0.45323 4.26937,-4.80026 -0.36156,-4.54345 -0.56274,-4.67493 -8.22263,-5.37393 -6.29359,-0.5743 -7.14094,-0.92595 -4.26938,-1.77175 1.97045,-0.58037 5.67846,-1.06402 8.24003,-1.07478 2.56157,-0.0108 4.65741,-0.66443 4.65741,-1.45261 0,-0.78818 -3.65428,-1.43305 -8.12061,-1.43305 -9.34119,0 -9.13629,-1.66391 0.34567,-2.80691 8.4481,-1.01837 8.20787,-3.45376 -0.42992,-4.35833 -5.76247,-0.60346 -6.27682,-0.88303 -3.25953,-1.77174 1.97044,-0.58037 5.34819,-1.06402 7.50611,-1.07479 3.54382,-0.0177 3.88763,-0.47026 3.55286,-4.67697 -0.35583,-4.47148 -0.65547,-4.68601 -7.50611,-5.37393 -5.91889,-0.59436 -6.52465,-0.89644 -3.55286,-1.77174 1.97044,-0.58037 5.35602,-1.06403 7.52351,-1.07479 2.16748,-0.0108 3.94088,-0.66444 3.94088,-1.45262 0,-0.78817 -3.65428,-1.43304 -8.12061,-1.43304 -9.54348,0 -9.34697,-1.2219 0.42122,-2.61918 6.52609,-0.93352 6.93224,-1.24746 7.28793,-5.63344 l 0.37667,-4.64482 h -8.10321 c -9.42491,0 -9.34559,-1.2085 0.17107,-2.60659 8.59811,-1.26315 8.47713,-3.62327 -0.23793,-4.64165 l -6.84215,-0.79953 7.49148,-1.17215 c 7.29402,-1.14126 7.4821,-1.29017 7.13549,-5.64919 -0.33752,-4.24451 -0.72661,-4.51856 -7.49149,-5.27657 l -7.13548,-0.79952 7.5235,-1.17641 c 9.94722,-1.55538 9.60295,-3.67325 -0.5971,-3.67325 -9.44033,0 -9.36914,-1.2076 0.15368,-2.6066 8.60214,-1.26373 8.47945,-3.63485 -0.23793,-4.59839 l -6.84215,-0.75627 7.5235,-1.16951 c 7.08182,-1.10086 7.52351,-1.41402 7.52351,-5.33419 0,-4.09808 -0.12738,-4.16467 -7.96634,-4.16467 -9.7351,0 -9.18262,-2.39349 0.86,-3.72569 9.65351,-1.28059 8.98057,-3.40706 -1.13369,-3.58239 -6.28863,-0.10902 -7.39159,-0.41457 -4.65741,-1.29021 1.97045,-0.63104 5.67846,-1.21163 8.24003,-1.2902 3.12107,-0.0957 4.65741,-0.85193 4.65741,-2.29242 0,-1.68553 -2.1655,-2.19597 -10.03134,-2.36453 -5.51723,-0.11822 -10.83742,-0.27944 -11.82265,-0.35826 -1.40826,-0.11266 -1.82545,14.65078 -1.951,69.04154 -0.0878,38.05166 -0.55616,69.58132 -1.04072,70.06587 -0.48457,0.48457 -0.91973,-31.61592 -0.96703,-71.33441 -0.0473,-39.7185 -0.45279,-74.95615 -0.90111,-78.3059 l -0.81511,-6.09046 h 16.63058 c 10.13168,0 16.63057,-0.56 16.63057,-1.43304 0,-0.94094 32.11004,-1.42578 93.50638,-1.41187 99.97164,0.0226 103.49574,0.24153 117.55504,7.3014 15.7533,7.91049 28.9576,22.28089 35.526,38.66342 3.8346,9.56399 5.2809,30.31334 2.89,41.46152 -4.183,19.50479 -19.8006,41.44271 -37.8351,53.14679 -10.0969,6.55273 -18.4265,9.44743 -32.1354,11.16759 -5.7045,0.7158 -13.443,2.77015 -17.1965,4.56522 -10.9918,5.25659 -25.5128,21.19185 -36.9187,40.51417 -11.8969,20.15412 -17.58693,27.14054 -25.5906,31.42104 -5.72616,3.06245 -7.59918,3.19077 -52.8688,3.62197 -41.7803,0.39796 -46.93232,0.20132 -46.93232,-1.79131 z"
         id="path3029" />
      <path
         style="fill:#333333;fill-opacity:1;stroke-width:1.43305"
         d="m 886.96748,461.93855 c 0,-1.89933 -2.496,-2.23835 -16.48005,-2.23835 h -16.48006 v -5.01566 c 0,-2.75862 0.64488,-5.01567 1.43305,-5.01567 0.78818,0 1.43305,-1.28975 1.43305,-2.8661 0,-2.64131 0.95537,-2.86609 12.18091,-2.86609 11.1166,0 12.18091,-0.24388 12.18091,-2.79121 0,-2.35136 -1.18557,-2.86621 -7.52351,-3.26716 l -7.5235,-0.47598 7.5235,-1.2166 c 9.96346,-1.61114 9.57946,-3.6778 -0.71652,-3.85629 -6.28863,-0.10901 -7.39159,-0.41456 -4.65741,-1.2902 1.97045,-0.63104 5.61397,-1.21164 8.09673,-1.2902 4.1764,-0.13213 4.5141,-0.51807 4.5141,-5.15851 v -5.01567 l -8.09672,-0.14288 c -6.21492,-0.10961 -7.26407,-0.40948 -4.51411,-1.29017 1.97045,-0.63104 5.7322,-1.21164 8.35945,-1.2902 7.01069,-0.20964 4.95758,-3.56474 -2.73853,-4.47518 l -6.33744,-0.74972 6.80698,-1.12939 c 9.34587,-1.55066 8.55423,-3.77577 -1.43305,-4.02794 l -8.24003,-0.20807 8.24003,-1.45694 c 8.09474,-1.43125 8.24003,-1.54128 8.24003,-6.24066 v -4.78372 l -7.52351,-0.10073 c -5.52543,-0.074 -6.76233,-0.4278 -4.6574,-1.33232 1.57635,-0.67738 4.96193,-1.27693 7.5235,-1.33232 8.21978,-0.17776 4.96409,-2.96682 -3.4632,-2.96682 -9.55822,0 -9.34417,-1.22549 0.45702,-2.61655 6.54706,-0.9292 6.97292,-1.25357 7.39612,-5.63344 l 0.44906,-4.64744 h -8.2114 c -9.50699,0 -9.23751,-1.6736 0.45196,-2.80691 10.06294,-1.17698 9.69035,-4.3117 -0.54276,-4.56638 l -8.35945,-0.20807 8.24003,-1.45693 c 8.09474,-1.43126 8.24003,-1.54129 8.24003,-6.24067 v -4.78372 l -7.52351,-0.10073 c -5.52543,-0.074 -6.76233,-0.4278 -4.6574,-1.33231 1.57635,-0.67739 4.96193,-1.27694 7.5235,-1.33232 8.21837,-0.17774 4.96536,-2.96306 -3.58262,-3.06756 -5.92849,-0.0725 -7.43601,-0.44621 -5.37393,-1.33232 1.57635,-0.67738 5.28437,-1.27693 8.24003,-1.33232 3.68886,-0.0691 5.37393,-0.75127 5.37393,-2.17541 0,-1.48698 -2.13119,-2.20951 -7.52351,-2.55064 l -7.5235,-0.47597 7.5235,-1.21659 c 7.32036,-1.18375 7.52351,-1.34502 7.52351,-5.97275 0,-4.72179 -0.0544,-4.7596 -7.52351,-5.23213 l -7.5235,-0.47596 7.5235,-1.21659 c 9.95255,-1.60939 9.57758,-3.66159 -0.71652,-3.92151 l -8.24003,-0.20805 8.24003,-1.45695 c 8.09474,-1.43125 8.24003,-1.54128 8.24003,-6.24066 v -4.78372 l -8.24003,-0.14284 c -6.28863,-0.10902 -7.39159,-0.41457 -4.65741,-1.29021 1.97045,-0.63104 5.67846,-1.21163 8.24003,-1.2902 3.04405,-0.0934 4.65741,-0.86153 4.65741,-2.21752 0,-1.48699 -2.13119,-2.20951 -7.52351,-2.55065 l -7.5235,-0.47596 7.59978,-1.22672 c 7.4237,-1.19829 7.5897,-1.3301 7.16524,-5.68938 -0.41056,-4.21646 -0.82985,-4.50678 -7.59978,-5.2622 l -7.16524,-0.79952 7.5235,-1.17641 c 9.97097,-1.55909 9.5807,-3.63759 -0.71652,-3.8161 -6.28863,-0.10902 -7.39159,-0.41456 -4.65741,-1.2902 1.97045,-0.63105 5.7322,-1.21164 8.35945,-1.2902 7.3856,-0.22086 4.76307,-3.60465 -3.4549,-4.45777 l -7.05412,-0.7323 7.60977,-1.11981 c 7.50657,-1.10463 7.60373,-1.18214 7.16524,-5.71642 -0.41535,-4.29492 -0.86777,-4.64581 -6.89324,-5.34632 l -6.44872,-0.74971 6.80698,-1.1294 c 9.34587,-1.55066 8.55423,-3.77577 -1.43305,-4.02794 l -8.24003,-0.20806 8.29873,-1.4658 c 6.33626,-1.11918 8.19645,-2.00191 7.86623,-3.73283 -0.34158,-1.79041 -2.76915,-2.35511 -11.54681,-2.68599 -10.4272,-0.39307 -11.19815,-0.21588 -12.4706,2.86609 -1.02442,2.48125 -1.14912,1.7948 -0.50964,-2.80538 0.56515,-4.06554 0.30929,-6.09046 -0.76956,-6.09046 -0.89173,0 -1.61621,-2.24832 -1.61621,-5.01567 v -5.01567 h 16.48006 c 10.03133,0 16.48005,-0.56075 16.48005,-1.43304 0,-0.94094 32.11004,-1.42578 93.50638,-1.41187 76.29074,0.0173 95.11614,0.40083 102.24994,2.08325 11.0258,2.60031 16.4988,5.06905 15.3519,6.92483 -0.5012,0.81104 -0.1802,1.00437 0.7318,0.4407 2.0734,-1.28139 7.7702,1.69545 6.6655,3.48296 -0.4571,0.7396 0.036,1.01203 1.0956,0.60539 2.3746,-0.91121 15.8858,11.7545 14.6582,13.74086 -0.487,0.78804 -0.1198,1.25561 0.8159,1.03903 2.3065,-0.53379 11.1993,15.75693 13.6723,25.04641 2.4746,9.29581 2.6087,25.59894 0.293,35.63126 -2.2286,9.65471 -11.4188,27.76769 -14.1102,27.8097 -1.133,0.0176 -1.8949,1.04023 -1.693,2.2723 -20.7781,21.84235 -36.2954,14.91788 -53.3967,32.65811 -48.7975,1.40423 -42.6594,12.43985 -55.0699,46.00465 -1.8571,4.04835 -18.64499,30.07696 -23.15543,27.8634 -1.02293,-0.6322 -1.37531,-0.48053 -0.85176,0.36659 0.49116,0.79471 -0.86016,2.3411 -3.00294,3.43642 -3.03186,1.54981 -14.3051,2.09274 -50.82827,2.44791 -41.78429,0.40632 -46.93232,0.21085 -46.93232,-1.78196 z m -31.52706,-21.49992 c 0,-1.13574 0.58473,-2.42638 1.29941,-2.86807 0.71467,-0.44169 0.96189,0.48755 0.54938,2.06499 -0.87504,3.34616 -1.84879,3.76913 -1.84879,0.80308 z m 0,-12.89743 c 0,-1.13575 0.58473,-2.42638 1.29941,-2.86807 0.71467,-0.4417 0.96189,0.48755 0.54938,2.06499 -0.87504,3.34615 -1.84879,3.76913 -1.84879,0.80308 z m 0,-12.89743 c 0,-1.13575 0.58473,-2.42638 1.29941,-2.86808 0.71467,-0.44169 0.96189,0.48756 0.54938,2.065 -0.87504,3.34615 -1.84879,3.76913 -1.84879,0.80308 z m 0,-12.89743 c 0,-1.13575 0.58473,-2.42638 1.29941,-2.86808 0.71467,-0.44169 0.96189,0.48755 0.54938,2.065 -0.87504,3.34615 -1.84879,3.76913 -1.84879,0.80308 z m 0.49451,-17.34297 c -0.46672,-1.21625 -0.52838,-2.53158 -0.13702,-2.92293 0.39135,-0.39136 1.05552,0.60376 1.47592,2.21138 0.893,3.41485 -0.0992,3.94216 -1.3389,0.71155 z m -0.17468,-11.76084 c 0.0241,-3.89793 0.31741,-4.59302 1.06788,-2.53072 0.90588,2.48934 0.42974,7.90465 -0.69502,7.90465 -0.22334,0 -0.39113,-2.41827 -0.37286,-5.37393 z m 0.17468,-14.03402 c -0.46672,-1.21626 -0.52838,-2.53158 -0.13702,-2.92293 0.39135,-0.39137 1.05552,0.60375 1.47592,2.21138 0.893,3.41485 -0.0992,3.94215 -1.3389,0.71155 z m 0,-12.89744 c -0.46672,-1.21625 -0.52838,-2.53157 -0.13702,-2.92293 0.39135,-0.39136 1.05552,0.60376 1.47592,2.21138 0.893,3.41486 -0.0992,3.94216 -1.3389,0.71155 z m 0,-12.89743 c -0.46672,-1.21625 -0.52838,-2.53157 -0.13702,-2.92293 0.39135,-0.39136 1.05552,0.60376 1.47592,2.21138 0.893,3.41485 -0.0992,3.94215 -1.3389,0.71155 z m -0.49451,-14.1841 c 0,-1.13575 0.58473,-2.42638 1.29941,-2.86807 0.71467,-0.44169 0.96189,0.48756 0.54938,2.065 -0.87504,3.34614 -1.84879,3.76912 -1.84879,0.80307 z m 0.48127,-11.64528 c -0.47401,-1.23525 -0.29255,-2.81518 0.40323,-3.51097 0.7314,-0.7314 1.26507,0.21605 1.26507,2.2459 0,4.06829 -0.45903,4.41638 -1.6683,1.26507 z m -0.48127,-14.14958 c 0,-1.13575 0.58473,-2.42639 1.29941,-2.86808 0.71467,-0.44169 0.96189,0.48756 0.54938,2.065 -0.87504,3.34615 -1.84879,3.76913 -1.84879,0.80308 z m 0,-25.79487 c 0,-1.13575 0.58473,-2.42638 1.29941,-2.86807 0.71467,-0.44169 0.96189,0.48755 0.54938,2.06499 -0.87504,3.34615 -1.84879,3.76913 -1.84879,0.80308 z"
         id="path3027"
         sodipodi:nodetypes="sscsssssscssssscsssscsscsscsssssscssscsscsssssssscssscsscsscssssscssscssssscssscsscssssssscsssssssssssssccccssssssssssssssssssssssssssssssssssssssssssssssssssssssss" />
    </g>
  </g>
</svg>
